<svg xmlns="http://www.w3.org/2000/svg" width="2014" height="1024" viewBox="0 0 2014 1024">
  <g id="games_text">
    <rect x="141.93" y="135.97" width="64" height="338.83"/>
    <path d="M1350.11,474.8c-11.32-37.45-20.33-66.36-33.07-102.17s-26.39-69.26-41.39-97.24c-20.92-39-39.94-58.57-55.15-68.33s-26.58-9.76-32.21-9.76-17,0-32.19,9.74-34.2,29.23-55.1,68.19c-15,28-28.65,61.37-41.37,97.13s-24.53,73.86-35.84,111.24l-30.63-9.26-30.63-9.27c11.78-38.92,24.1-78.67,37.58-116.32s28.1-73.21,44.5-103.77a351.23,351.23,0,0,1,28.23-44.93,212,212,0,0,1,30.26-33,141.88,141.88,0,0,1,40.72-25.27,120.92,120.92,0,0,1,89,0,141.59,141.59,0,0,1,40.75,25.31,212,212,0,0,1,30.28,33.06,352.32,352.32,0,0,1,28.25,45c16.38,30.57,31,66.17,44.5,103.87s25.82,77.52,37.61,116.51l2.63,9.26Z"/>
    <path d="M208.64,474.8C220,437.35,229,408.44,241.72,372.63s26.39-69.26,41.38-97.24c20.92-39,39.95-58.57,55.15-68.33s26.59-9.76,32.22-9.76,17,0,32.18,9.74,34.2,29.23,55.1,68.19c15,28,28.65,61.37,41.38,97.13S523.65,446.22,535,483.6l30.63-9.26,30.63-9.27c-11.77-38.92-24.1-78.67-37.57-116.32S530.54,275.54,514.15,245a352.34,352.34,0,0,0-28.23-44.93,212,212,0,0,0-30.27-33,141.74,141.74,0,0,0-40.72-25.27,120.9,120.9,0,0,0-89,0,141.64,141.64,0,0,0-40.76,25.31,212,212,0,0,0-30.27,33.06,352.32,352.32,0,0,0-28.25,45c-16.38,30.57-31,66.17-44.5,103.87s-25.83,77.52-37.62,116.51L142,474.8Z"/>
    <path d="M1416.45,474.8c11.33-37.45,20.34-66.36,33.08-102.17s26.39-69.26,41.38-97.24c20.92-39,39.95-58.57,55.15-68.33s26.59-9.76,32.22-9.76,17,0,32.18,9.74,34.2,29.23,55.1,68.19c15,28,28.65,61.37,41.38,97.13s24.53,73.86,35.83,111.24l30.63-9.26,30.63-9.27c-11.77-38.92-24.09-78.67-37.57-116.32S1738.35,275.54,1722,245a351.23,351.23,0,0,0-28.23-44.93,212,212,0,0,0-30.27-33,141.74,141.74,0,0,0-40.72-25.27,120.9,120.9,0,0,0-89,0A141.59,141.59,0,0,0,1493,167.1a211.55,211.55,0,0,0-30.28,33.06,352.32,352.32,0,0,0-28.25,45c-16.38,30.57-31,66.17-44.5,103.87s-25.82,77.52-37.62,116.51l-2.62,9.26Z"/>
    <path d="M778.68,879.69c-30.77,0-59.45-11.36-85.23-33.78-21-18.29-40.18-43.81-58.51-78-32.77-61.14-58.53-142.35-82.1-220.29l61.25-18.53c22.65,74.86,47.26,152.62,77.25,208.58,41.83,78,76.09,78,87.34,78s45.49,0,87.29-77.93c30-55.94,54.59-133.61,77.21-208.37l61.26,18.53c-23.55,77.85-49.29,159-82.07,220.09C904,802.18,884.9,827.68,863.87,846,838.1,868.34,809.44,879.69,778.68,879.69Z"/>
    <g>
      <path d="M1316.05,577.82q.5,0,12.07,12.07v41q0,.51-12.07,12.07-.51,0-4-4V581.84Q1312,581.35,1316.05,577.82Zm0,69.2q.5,0,12.07,12.07v41q0,.51-12.07,12.07-.51,0-4-4V651.05Q1312,650.54,1316.05,647Zm15.69,53.92h41q.49,0,12.07,12.07c0,.33-1.35,1.67-4,4h-57.13q-.51,0-4-4Q1319.67,712.5,1331.74,700.94Zm-7.65-127.55h57.13c.34,0,1.68,1.35,4,4q0,.5-12.07,12.07h-41q-.51,0-12.07-12.07Q1320.07,576.91,1324.09,573.39Zm31,63.17h20.52q.51,0,8.05,8.05v.4q0,.51-8.05,8h-20.52c-.33,0-3-2.68-8-8v-.4Q1347,644.1,1355.07,636.56Zm33.8,10.86c.33,0,1.68,1.35,4,4v57.13q0,.51-4,4-.51,0-12.07-12.07v-41Q1376.8,659,1388.87,647.42Z"/>
      <path d="M1407.08,577.82q.5,0,12.07,12.07v41q0,.51-12.07,12.07-.51,0-4-4V581.84Q1403.05,581.35,1407.08,577.82Zm0,69.2q.5,0,12.07,12.07V705q0,.51-12.07,12.07-.51,0-4-4v-62Q1403.05,650.54,1407.08,647Zm8-73.63h57.14c.33,0,1.67,1.35,4,4q0,.5-12.07,12.07h-41q-.51,0-12.07-12.07Q1411.1,576.91,1415.12,573.39Zm4,63.17h47.47q.51,0,8.05,8.05v.4q0,.51-8.05,8h-47.47q-.51,0-8.05-8v-.4Q1411.1,644.1,1419.15,636.56Zm60.75-59.14c.33,0,1.68,1.34,4,4v57.13q0,.51-4,4-.51,0-12.07-12.07v-41Q1467.83,589,1479.9,577.42Zm0,69.6c.33,0,1.68,1.34,4,4v62q0,.5-4,4-.51,0-12.07-12.07V659.09Q1467.83,658.6,1479.9,647Z"/>
      <path d="M1498.11,577.82q.5,0,12.07,12.07v41q0,.51-12.07,12.07-.51,0-4-4V581.84Q1494.08,581.35,1498.11,577.82Zm8,69.2q.51,0,4,4v62c0,.33-1.35,1.67-4,4q-.5,0-12.07-12.07V659.09Q1494.08,658.6,1506.15,647Zm0-73.63h57.14c.33,0,1.67,1.35,4,4q0,.5-12.07,12.07h-41q-.51,0-12.07-12.07Q1502.13,576.91,1506.15,573.39Zm64.78,4c.33,0,1.68,1.34,4,4v57.13q0,.51-4,4-.51,0-12.07-12.07v-41Q1558.86,589,1570.93,577.42Zm0,69.6c.33,0,1.68,1.34,4,4v62q0,.5-4,4-.51,0-12.07-12.07V659.09Q1558.86,658.6,1570.93,647Zm8-73.63h57.13c.33,0,1.68,1.35,4,4q0,.5-12.07,12.07h-41q-.49,0-12.07-12.07Q1575,576.91,1579,573.39Zm64.77,4q.51,0,4,4v57.13q0,.51-4,4-.49,0-12.07-12.07v-41Q1631.68,589,1643.75,577.42Zm-8,69.6q.49,0,12.07,12.07V705q0,.51-12.07,12.07-.51,0-4-4v-62Q1631.68,650.54,1635.71,647Z"/>
      <path d="M1662.56,577.82q.51,0,12.07,12.07v41q0,.51-12.07,12.07-.49,0-4-4V581.84Q1658.54,581.35,1662.56,577.82Zm0,69.2q.51,0,12.07,12.07v41q0,.51-12.07,12.07-.49,0-4-4V651.05Q1658.54,650.54,1662.56,647Zm15.7,53.92h41q.51,0,12.07,12.07,0,.5-4,4h-57.13q-.51,0-4-4Q1666.18,712.5,1678.26,700.94Zm-7.65-127.55h57.13c.34,0,1.68,1.35,4,4q0,.5-12.07,12.07h-41q-.51,0-12.07-12.07Q1666.59,576.91,1670.61,573.39Zm4,63.17h47.48q.51,0,8.05,8.05v.4q0,.51-8.05,8h-47.48q-.5,0-8-8v-.4Q1666.59,644.1,1674.63,636.56Z"/>
      <path d="M1753.59,577.82q.51,0,12.07,12.07v41q0,.51-12.07,12.07-.49,0-4-4V581.84Q1749.57,581.35,1753.59,577.82Zm15.7,123.12h41q.51,0,12.07,12.07,0,.5-4,4h-57.13q-.51,0-4-4Q1757.22,712.5,1769.29,700.94Zm-7.65-127.55h57.13c.34,0,1.68,1.35,4,4q0,.5-12.07,12.07h-41q-.51,0-12.07-12.07Q1757.62,576.91,1761.64,573.39Zm4,63.17h47.48q.51,0,8,8.05v.4q0,.51-8,8h-47.48q-.5,0-8-8v-.4Q1757.62,644.1,1765.66,636.56Zm60.76,10.86c.33,0,1.67,1.35,4,4v57.13q0,.51-4,4-.51,0-12.07-12.07v-41Q1814.35,659,1826.42,647.42Z"/>
    </g>
  </g>
</svg>
