<?xml version="1.0" encoding="UTF-8"?>
<svg id="Layer_1" data-name="Layer 1" xmlns="http://www.w3.org/2000/svg" width="256" height="256" viewBox="0 0 256 256">
  <defs>
    <style>
      .cls-1 {
        fill: #231f20;
      }
    </style>
  </defs>
  <g>
    <path class="cls-1" d="M101.31,133.14c-1.25-1.27-1.24-2.85-1.23-4.93s.03-3.65,1.3-4.91c.89-.88,1.93-1.34,3.42-1.32,3.17,.02,4.5,2.1,4.78,4.12l-3.05-.02c-.24-.94-.72-1.39-1.76-1.4-.55,0-.97,.23-1.2,.53-.28,.36-.46,.78-.47,3.03-.02,2.25,.15,2.68,.43,3.05,.22,.29,.64,.52,1.19,.53,1.14,0,1.82-.64,1.83-1.79v-.17h-1.82l.02-2.54,4.83,.04v1.71c-.03,1.99-.35,3.15-1.29,4.09-1.06,1.08-2.24,1.37-3.59,1.36-1.49-.01-2.52-.49-3.4-1.38Z"/>
    <path class="cls-1" d="M110.39,134.45l4.58-12.29,2.32,.02,4.39,12.36-3.17-.02-.57-1.84-3.77-.03-.6,1.83-3.17-.02Zm4.62-4.33l2.11,.02-1.03-3.3-1.08,3.28Z"/>
    <path class="cls-1" d="M122.93,134.55l.09-12.32,2.98,.02,2.73,5.46,2.81-5.41,2.98,.02-.09,12.32-3.03-.02,.05-5.9-1.77,3.03h-1.94l-1.73-3.08-.05,5.9-3.03-.02Z"/>
    <path class="cls-1" d="M136.92,134.66l.09-12.32,8.38,.06-.02,2.7-5.35-.04-.02,2.06,4.57,.04-.02,2.7-4.57-.04-.02,2.16,5.35,.04-.02,2.7-8.38-.06Z"/>
    <path class="cls-1" d="M146.31,133.21l1.95-1.92c.64,.64,1.76,.88,2.75,.89,1.19,0,1.77-.38,1.77-1.09s-.39-.97-1.05-1.06l-1.49-.22c-2.11-.31-3.31-1.38-3.3-3.59s1.73-3.88,4.53-3.86c1.77,.01,3.1,.44,4.14,1.5l-1.92,1.89c-.64-.64-1.34-.74-2.33-.75-1.06,0-1.49,.59-1.5,1.13,0,.59,.56,.87,1.08,.94l1.49,.22c2.23,.33,3.33,1.43,3.31,3.75-.02,2.51-2.19,3.86-4.79,3.84-1.89-.01-3.43-.37-4.66-1.66Z"/>
  </g>
  <path d="M61.13,256l13.66-87.72H38.83v-11.87h38.1l9.35-60.76H50.34v-11.51h37.75L101.4,0h12.94l-13.31,84.14h67.23L181.57,0h12.94l-13.31,84.14h35.97v11.51h-37.75l-9.35,60.76h35.95v11.87h-38.1l-13.67,87.72h-12.94l13.66-87.72H87.72l-13.66,87.72h-12.94Zm28.76-99.6h67.23l9.34-60.76H99.23l-9.34,60.76Z"/>
</svg>