<?xml version="1.0" encoding="UTF-8"?>
<svg id="Layer_1" data-name="Layer 1" xmlns="http://www.w3.org/2000/svg" width="256" height="256" viewBox="0 0 256 256">
  <defs>
    <style>
      .cls-1 {
        fill: #fff;
      }
    </style>
  </defs>
  <g>
    <polygon class="cls-1" points="168.26 84.14 181.57 0 114.34 0 101.03 84.14 168.26 84.14"/>
    <polygon class="cls-1" points="87.72 168.28 74.07 256 141.3 256 154.96 168.28 87.72 168.28"/>
    <polygon class="cls-1" points="38.83 168.28 38.83 156.4 76.94 156.4 86.29 95.64 50.34 95.64 50.34 84.14 88.09 84.14 101.4 0 0 0 0 256 61.13 256 74.78 168.28 38.83 168.28"/>
    <polygon class="cls-1" points="194.51 0 181.2 84.14 217.17 84.14 217.17 95.64 179.42 95.64 170.06 156.4 206.01 156.4 206.01 168.28 167.91 168.28 154.24 256 256 256 256 0 194.51 0"/>
  </g>
  <path id="hash_bu" d="M61.13,256l13.66-87.72H38.83v-11.87h38.1l9.35-60.76H50.34v-11.51h37.75L101.4,0h12.94l-13.31,84.14h67.23L181.57,0h12.94l-13.31,84.14h35.97v11.51h-37.75l-9.35,60.76h35.95v11.87h-38.1l-13.67,87.72h-12.94l13.66-87.72H87.72l-13.66,87.72h-12.94Zm28.76-99.6h67.23l9.34-60.76H99.23l-9.34,60.76Z"/>
</svg>